<svg width="22" height="22" viewBox="0 0 22 22" fill="none" xmlns="http://www.w3.org/2000/svg">
<path d="M15.3076 3.38356C14.7176 3.38356 14.4216 3.38356 14.1526 3.28356L14.0416 3.23756C13.7806 3.11756 13.5716 2.90956 13.1536 2.49156C12.1916 1.52956 11.7106 1.04856 11.1196 1.00356C11.0396 0.998753 10.9595 0.998753 10.8796 1.00356C10.2886 1.04856 9.80755 1.52956 8.84555 2.49156C8.42755 2.90956 8.21855 3.11856 7.95755 3.23756L7.84755 3.28356C7.57755 3.38356 7.28255 3.38356 6.69155 3.38356H6.58155C5.07455 3.38356 4.32055 3.38356 3.85155 3.85156C3.38255 4.31956 3.38355 5.07456 3.38355 6.58156V6.69156C3.38355 7.28156 3.38355 7.57756 3.28355 7.84656C3.26888 7.88456 3.25355 7.92156 3.23755 7.95756C3.11755 8.21856 2.90955 8.42756 2.49155 8.84556C1.52955 9.80756 1.04855 10.2886 1.00355 10.8796C0.998746 10.9595 0.998746 11.0396 1.00355 11.1196C1.04855 11.7106 1.52955 12.1916 2.49155 13.1536C2.90955 13.5716 3.11855 13.7806 3.23755 14.0416C3.25422 14.0776 3.26955 14.1142 3.28355 14.1516C3.38355 14.4216 3.38355 14.7166 3.38355 15.3076V15.4176C3.38355 16.9246 3.38355 17.6786 3.85155 18.1476C4.31955 18.6166 5.07455 18.6156 6.58155 18.6156H6.69155C7.28155 18.6156 7.57755 18.6156 7.84655 18.7156C7.88455 18.7296 7.92155 18.7449 7.95755 18.7616C8.21855 18.8816 8.42755 19.0896 8.84555 19.5076C9.80755 20.4696 10.2886 20.9506 10.8796 20.9956C10.9596 21.0016 11.0396 21.0016 11.1196 20.9956C11.7106 20.9506 12.1916 20.4696 13.1536 19.5076C13.5716 19.0896 13.7806 18.8816 14.0416 18.7616C14.0776 18.7449 14.1142 18.7296 14.1516 18.7156C14.4216 18.6156 14.7166 18.6156 15.3076 18.6156H15.4176C16.9246 18.6156 17.6786 18.6156 18.1476 18.1476C18.6166 17.6796 18.6156 16.9246 18.6156 15.4176V15.3076C18.6156 14.7176 18.6156 14.4216 18.7156 14.1526C18.7296 14.1146 18.7449 14.0776 18.7616 14.0416C18.8816 13.7806 19.0896 13.5716 19.5076 13.1536C20.4696 12.1916 20.9506 11.7106 20.9956 11.1196C21.0016 11.0396 21.0016 10.9596 20.9956 10.8796C20.9506 10.2886 20.4696 9.80756 19.5076 8.84556C19.0896 8.42756 18.8816 8.21856 18.7616 7.95756L18.7156 7.84756C18.6156 7.57756 18.6156 7.28256 18.6156 6.69156V6.58156C18.6156 5.07456 18.6156 4.32056 18.1476 3.85156C17.6796 3.38256 16.9246 3.38356 15.4176 3.38356H15.3076Z" stroke="white" stroke-width="1.5" stroke-linecap="round" stroke-linejoin="round"/>
<path d="M7.50322 15.5002C7.85791 14.8858 8.36811 14.3757 8.98251 14.0211C9.59691 13.6665 10.2938 13.4799 11.0032 13.4802C12.4992 13.4802 13.8042 14.2922 14.5032 15.5002M13.0032 9.00017C13.0032 9.5306 12.7925 10.0393 12.4174 10.4144C12.0424 10.7895 11.5337 11.0002 11.0032 11.0002C10.4728 11.0002 9.96408 10.7895 9.58901 10.4144C9.21394 10.0393 9.00322 9.5306 9.00322 9.00017C9.00322 8.46973 9.21394 7.96103 9.58901 7.58595C9.96408 7.21088 10.4728 7.00017 11.0032 7.00017C11.5337 7.00017 12.0424 7.21088 12.4174 7.58595C12.7925 7.96103 13.0032 8.46973 13.0032 9.00017Z" stroke="white" stroke-width="1.5" stroke-linecap="round" stroke-linejoin="round"/>
</svg>
