<svg width="22" height="22" viewBox="0 0 22 22" fill="none" xmlns="http://www.w3.org/2000/svg">
<path d="M10.996 6H11.005M3 9V17.5M7 9V17.5M15 9V17.5M19 9V17.5M1 7.57C1 6.373 1.482 5.64 2.48 5.084L6.59 2.797C8.743 1.6 9.82 1 11 1C12.18 1 13.257 1.6 15.41 2.797L19.52 5.084C20.517 5.64 21 6.373 21 7.57C21 7.894 21 8.057 20.965 8.19C20.779 8.89 20.144 9.001 19.531 9.001H2.469C1.856 9.001 1.222 8.891 1.035 8.19C1 8.056 1 7.894 1 7.57ZM18 17.5H4C3.20435 17.5 2.44129 17.8161 1.87868 18.3787C1.31607 18.9413 1 19.7044 1 20.5C1 20.6326 1.05268 20.7598 1.14645 20.8536C1.24022 20.9473 1.3674 21 1.5 21H20.5C20.6326 21 20.7598 20.9473 20.8536 20.8536C20.9473 20.7598 21 20.6326 21 20.5C21 19.7044 20.6839 18.9413 20.1213 18.3787C19.5587 17.8161 18.7957 17.5 18 17.5Z" stroke="white" stroke-linecap="round" stroke-linejoin="round"/>
</svg>
