<svg width="20" height="22" viewBox="0 0 20 22" fill="none" xmlns="http://www.w3.org/2000/svg">
<path d="M13.0775 17.1538V17.9231C13.0775 18.7391 12.7533 19.5218 12.1763 20.0988C11.5992 20.6758 10.8166 21 10.0005 21C9.18449 21 8.40186 20.6758 7.82482 20.0988C7.24779 19.5218 6.92362 18.7391 6.92362 17.9231V17.1538M18.2544 15.588C17.0198 14.0769 16.1481 13.3077 16.1481 9.14183C16.1481 5.32692 14.2001 3.96779 12.5967 3.30769C12.3837 3.22019 12.1832 3.01923 12.1183 2.80048C11.8371 1.84327 11.0486 1 10.0005 1C8.95246 1 8.16352 1.84375 7.88515 2.80144C7.82025 3.0226 7.61977 3.22019 7.40679 3.30769C5.8015 3.96875 3.85535 5.32308 3.85535 9.14183C3.85294 13.3077 2.98131 14.0769 1.74669 15.588C1.23515 16.2139 1.68323 17.1538 2.57794 17.1538H17.4279C18.3178 17.1538 18.763 16.2111 18.2544 15.588Z" stroke="#603AE5" stroke-width="1.5" stroke-linecap="round" stroke-linejoin="round"/>
</svg>
