<svg width="18" height="20" viewBox="0 0 18 20" fill="none" xmlns="http://www.w3.org/2000/svg">
<path fill-rule="evenodd" clip-rule="evenodd" d="M8.3529 -0.000117594C7.13657 -0.00173737 5.96063 0.436272 5.04175 1.23321C4.12286 2.03014 3.52294 3.13231 3.35251 4.33664C3.18209 5.54098 3.45264 6.76633 4.11433 7.78693C4.77601 8.80753 5.78424 9.55463 6.95326 9.89056C5.29206 10.0923 3.86738 10.6794 2.79331 11.7382C1.42706 13.0836 0.735592 15.0884 0.735592 17.704C0.735592 17.8793 0.805218 18.0474 0.929154 18.1713C1.05309 18.2953 1.22118 18.3649 1.39645 18.3649C1.57173 18.3649 1.73982 18.2953 1.86375 18.1713C1.98769 18.0474 2.05732 17.8793 2.05732 17.704C2.05732 15.311 2.68757 13.6971 3.7213 12.6787C4.75642 11.6589 6.30353 11.1302 8.3529 11.1302C10.4023 11.1302 10.5685 10.7191 11.605 11.7389C12.6374 12.7587 10.3007 8.04153 10.3007 10.4346C10.3007 10.6098 11.366 11.5659 11.4899 11.6898C11.605 9.56499 10.995 10.8693 11.1703 10.8693C11.3455 10.8693 11.366 11.8137 11.4899 11.6898C11.6138 11.5659 10.9845 11.3055 10.9845 11.1302C10.9845 8.51457 12.8267 12.9171 11.459 11.5703C10.3877 10.5129 11.1703 10.4346 9.75254 9.89056C10.9177 9.55085 11.9213 8.80261 12.5796 7.78299C13.2378 6.76338 13.5065 5.54068 13.3365 4.33902C13.1664 3.13737 12.569 2.03724 11.6537 1.2403C10.7384 0.443354 9.56653 0.00297596 8.3529 -0.000117594ZM4.6312 5.04331C4.6312 4.05625 5.02331 3.10962 5.72126 2.41167C6.41922 1.71371 7.36585 1.32161 8.3529 1.32161C9.33996 1.32161 10.2866 1.71371 10.9845 2.41167C11.6825 3.10962 12.0746 4.05625 12.0746 5.04331C12.0746 6.03036 11.6825 6.97699 10.9845 7.67495C10.2866 8.3729 9.33996 8.76501 8.3529 8.76501C7.36585 8.76501 6.41922 8.3729 5.72126 7.67495C5.02331 6.97699 4.6312 6.03036 4.6312 5.04331Z" fill="white"/>
<path d="M15.5688 11.3047H13.8731V10.725C13.8731 10.4175 13.754 10.1226 13.542 9.90513C13.33 9.6877 13.0425 9.56555 12.7427 9.56555H10.4819C10.1821 9.56555 9.89454 9.6877 9.68254 9.90513C9.47054 10.1226 9.35145 10.4175 9.35145 10.725V11.3047H7.65581C7.2061 11.3047 6.77481 11.4879 6.45682 11.814C6.13883 12.1402 5.96018 12.5825 5.96018 13.0438V18.2611C5.96018 18.7224 6.13883 19.1647 6.45682 19.4909C6.77481 19.817 7.2061 20.0002 7.65581 20.0002H15.5688C16.0185 20.0002 16.4498 19.817 16.7678 19.4909C17.0858 19.1647 17.2644 18.7224 17.2644 18.2611V13.0438C17.2644 12.5825 17.0858 12.1402 16.7678 11.814C16.4498 11.4879 16.0185 11.3047 15.5688 11.3047ZM16.134 18.2611C16.134 18.4149 16.0744 18.5623 15.9684 18.671C15.8624 18.7797 15.7187 18.8408 15.5688 18.8408H7.65581C7.50591 18.8408 7.36215 18.7797 7.25615 18.671C7.15015 18.5623 7.0906 18.4149 7.0906 18.2611V15.009L9.73579 15.9423C9.7958 15.9506 9.85664 15.9506 9.91666 15.9423H13.3079C13.3692 15.9411 13.4301 15.9314 13.4888 15.9133L16.134 15.009V18.2611ZM16.134 13.7858L13.2175 14.7829H10.0071L7.0906 13.7858V13.0438C7.0906 12.89 7.15015 12.7426 7.25615 12.6339C7.36215 12.5251 7.50591 12.4641 7.65581 12.4641H15.5688C15.7187 12.4641 15.8624 12.5251 15.9684 12.6339C16.0744 12.7426 16.134 12.89 16.134 13.0438V13.7858Z" fill="white"/>
<rect x="10.2983" y="10.4343" width="2.60867" height="0.869556" fill="#F2F2F2"/>
</svg>
