<svg width="28" height="28" viewBox="0 0 28 28" fill="none" xmlns="http://www.w3.org/2000/svg">
<path d="M18.0682 8.7513H18.0775M21.5682 8.7513H21.5775M25.6609 8.49814C25.6609 11.5805 23.0487 14.0795 19.8275 14.0795C19.448 14.0795 19.0719 14.0445 18.6994 13.9745C18.431 13.9243 18.2969 13.8998 18.2035 13.9138C18.1102 13.9278 17.9772 13.9978 17.7135 14.139C16.9586 14.5413 16.0899 14.6766 15.2484 14.5228C15.57 14.1254 15.7881 13.6544 15.883 13.152C15.9414 12.8428 15.7967 12.543 15.5797 12.3236C14.5673 11.3076 13.9974 9.93253 13.9942 8.49814C13.9942 5.41697 16.6064 2.91797 19.8275 2.91797C23.0487 2.91797 25.6609 5.41697 25.6609 8.49814ZM8.74655 25.0846H5.49855C5.12171 25.0846 4.74255 25.031 4.39605 24.8828C3.26905 24.3986 2.69621 23.7581 2.43021 23.358C2.35802 23.2471 2.32255 23.1164 2.32884 22.9842C2.33512 22.8521 2.38283 22.7253 2.46521 22.6218C3.77188 20.8858 6.80521 19.8381 8.75238 19.8381C10.6984 19.8381 13.727 20.8858 15.0337 22.6218C15.1982 22.84 15.2204 23.1305 15.0687 23.358C14.8015 23.7581 14.2287 24.3986 13.1017 24.8828C12.7516 25.0237 12.3766 25.0924 11.9992 25.0846H8.74655ZM11.9945 13.7551C11.9939 14.1804 11.9096 14.6015 11.7462 14.9942C11.5829 15.3869 11.3438 15.7435 11.0427 16.0439C10.7415 16.3442 10.3841 16.5822 9.99095 16.7444C9.59779 16.9066 9.17652 16.9897 8.75121 16.9891C7.89267 16.9898 7.06901 16.6495 6.46127 16.043C5.85353 15.4366 5.51145 14.6137 5.51021 13.7551C5.51067 13.3298 5.5949 12.9088 5.75808 12.516C5.92126 12.1233 6.16021 11.7665 6.46127 11.4661C6.76233 11.1657 7.11962 10.9275 7.51273 10.7652C7.90584 10.6028 8.32707 10.5195 8.75238 10.52C9.17769 10.5195 9.59892 10.6028 9.99203 10.7652C10.3851 10.9275 10.7424 11.1657 11.0435 11.4661C11.3446 11.7665 11.5835 12.1233 11.7467 12.516C11.9099 12.9088 11.9941 13.3298 11.9945 13.7551Z" stroke="white" stroke-width="1.75" stroke-linecap="round" stroke-linejoin="round"/>
</svg>
