<svg width="20" height="20" viewBox="0 0 20 20" fill="none" xmlns="http://www.w3.org/2000/svg">
<path fill-rule="evenodd" clip-rule="evenodd" d="M4.00781 19.746H17.0078C17.7372 19.746 18.4366 19.4563 18.9524 18.9405C19.4681 18.4248 19.7578 17.7253 19.7578 16.996V11.496C19.7578 11.2971 19.6788 11.1063 19.5381 10.9657C19.3975 10.825 19.2067 10.746 19.0078 10.746H15.7578V2.939C15.7578 1.516 14.1488 0.687999 12.9908 1.515L12.8158 1.64C12.4326 1.91203 11.9741 2.05783 11.5042 2.05711C11.0342 2.05639 10.5762 1.90919 10.1938 1.636C9.55543 1.18167 8.79136 0.937531 8.00781 0.937531C7.22427 0.937531 6.46019 1.18167 5.82181 1.636C5.43943 1.90919 4.9814 2.05639 4.51145 2.05711C4.04151 2.05783 3.58302 1.91203 3.19981 1.64L3.02481 1.515C1.86681 0.687999 0.257812 1.515 0.257812 2.939V15.996C0.257812 16.9906 0.652901 17.9444 1.35616 18.6477C2.05942 19.3509 3.01325 19.746 4.00781 19.746ZM6.69381 2.856C7.07776 2.58344 7.53696 2.43703 8.00781 2.43703C8.47866 2.43703 8.93787 2.58344 9.32181 2.856C9.95852 3.31112 10.7214 3.55621 11.504 3.55711C12.2867 3.55801 13.0501 3.31466 13.6878 2.861L13.8628 2.736C13.9002 2.70941 13.9441 2.6936 13.9898 2.6903C14.0356 2.687 14.0813 2.69634 14.1221 2.7173C14.1629 2.73825 14.1971 2.77002 14.221 2.80912C14.245 2.84822 14.2577 2.89315 14.2578 2.939V16.996C14.2578 17.446 14.3658 17.871 14.5578 18.246H4.00781C3.41108 18.246 2.83878 18.0089 2.41682 17.587C1.99487 17.165 1.75781 16.5927 1.75781 15.996V2.939C1.75793 2.89315 1.77066 2.84822 1.79459 2.80912C1.81853 2.77002 1.85276 2.73825 1.89354 2.7173C1.93432 2.69634 1.98007 2.687 2.0258 2.6903C2.07152 2.6936 2.11547 2.70941 2.15281 2.736L2.32781 2.861C2.96556 3.31466 3.72897 3.55801 4.51161 3.55711C5.29425 3.55621 6.05711 3.31112 6.69381 2.856ZM15.7578 16.996V12.246H18.2578V16.996C18.2578 17.3275 18.1261 17.6455 17.8917 17.8799C17.6573 18.1143 17.3393 18.246 17.0078 18.246C16.6763 18.246 16.3584 18.1143 16.1239 17.8799C15.8895 17.6455 15.7578 17.3275 15.7578 16.996Z" fill="white"/>
</svg>
