<svg width="47" height="29" viewBox="0 0 47 29" fill="none" xmlns="http://www.w3.org/2000/svg">
<mask id="path-1-outside-1_643_63" maskUnits="userSpaceOnUse" x="0.265625" y="0.242188" width="45" height="29" fill="black">
<rect fill="white" x="0.265625" y="0.242188" width="45" height="29"/>
<path d="M11.0541 1.24219H12.8274L14.6716 1.45498L16.0902 1.88057L17.5798 2.58988L18.36 3.08639L19.2821 3.79571L20.4879 5.00153L21.3391 6.13643L22.1903 7.48412L23.1124 9.11553L23.9636 10.5342L25.0275 12.3784L26.0206 14.0807L26.9427 15.854L27.652 16.9889L28.2903 17.8401L28.8578 18.4784L29.7799 19.1877L30.7729 19.7552L31.9078 20.2517L33.0427 20.6064L34.1776 20.8192L35.1707 20.8901L36.5893 20.6773L37.7951 20.3226L39.4265 19.5424L40.5614 18.7622L41.4126 17.9819L42.051 17.2726H44.1789L43.9661 17.911L43.4696 18.8331L42.7603 19.6843L42.1928 20.1808L41.4835 20.8192L40.2068 21.5994L39.0009 22.1668L37.5114 22.6634L36.2346 22.9471L35.5253 23.018H34.3904L32.8299 22.8052L31.3404 22.4506L29.9218 21.8831L28.7869 21.2447L27.8648 20.5354L26.9427 19.6843L26.1624 18.7622L25.3112 17.5563L24.6729 16.4924L23.6798 14.79L22.9705 13.5133L21.9775 11.8109L21.0554 10.1795L19.9205 8.1225L19.0693 6.77481L18.2891 5.92364L17.5088 5.21433L16.5158 4.57595L15.5228 4.07943L14.246 3.65384L13.182 3.44105L12.6146 3.37012H11.3378L9.91921 3.58291L8.85525 3.93757L7.86221 4.50502L6.86918 5.21433L6.15987 5.85271L5.80521 6.13643L5.16683 6.91667L4.52845 7.98064L3.961 9.32833L3.60635 10.5342L3.46449 11.4563V12.8039L3.67728 14.1516L4.10287 15.5703L4.81218 16.9179L5.59242 17.8401L6.2308 18.5494L7.22383 19.3296L7.93314 19.7552L8.78431 20.1808L9.84828 20.5354L10.6995 20.6773L11.4797 20.7482H12.7565L13.9623 20.6064L15.0972 20.3226L16.1611 19.8971L17.2251 19.2587L18.2181 18.4075L18.9984 17.5563L19.8496 16.2796L20.3461 15.2865L20.5589 14.79L20.8426 14.9319L21.481 15.7121L22.1903 16.4924L22.0484 16.847L21.6228 17.6273L20.8426 18.7622L19.9914 19.7552L19.0693 20.6064L17.9344 21.3866L16.4449 22.1668L15.239 22.5924L13.8204 22.8762L12.4727 23.018H11.5506L10.4157 22.8762L8.78431 22.5215L7.36569 21.9541L6.30173 21.3866L5.45056 20.8192L4.45752 20.0389L3.46449 19.1168L3.25169 19.0459V27.6995L3.10983 27.8413H1.40749L1.26562 27.5576V10.7469L1.54935 9.32833L2.18773 7.48412L2.75518 6.49109L3.60635 5.28526L4.1738 4.57595H4.31566L4.45752 4.29222L4.67031 4.22129V4.07943L5.45056 3.44105L6.51452 2.73174L7.86221 2.02243L8.99711 1.59684L10.3448 1.31312L11.0541 1.24219Z"/>
</mask>
<path d="M11.0541 1.24219H12.8274L14.6716 1.45498L16.0902 1.88057L17.5798 2.58988L18.36 3.08639L19.2821 3.79571L20.4879 5.00153L21.3391 6.13643L22.1903 7.48412L23.1124 9.11553L23.9636 10.5342L25.0275 12.3784L26.0206 14.0807L26.9427 15.854L27.652 16.9889L28.2903 17.8401L28.8578 18.4784L29.7799 19.1877L30.7729 19.7552L31.9078 20.2517L33.0427 20.6064L34.1776 20.8192L35.1707 20.8901L36.5893 20.6773L37.7951 20.3226L39.4265 19.5424L40.5614 18.7622L41.4126 17.9819L42.051 17.2726H44.1789L43.9661 17.911L43.4696 18.8331L42.7603 19.6843L42.1928 20.1808L41.4835 20.8192L40.2068 21.5994L39.0009 22.1668L37.5114 22.6634L36.2346 22.9471L35.5253 23.018H34.3904L32.8299 22.8052L31.3404 22.4506L29.9218 21.8831L28.7869 21.2447L27.8648 20.5354L26.9427 19.6843L26.1624 18.7622L25.3112 17.5563L24.6729 16.4924L23.6798 14.79L22.9705 13.5133L21.9775 11.8109L21.0554 10.1795L19.9205 8.1225L19.0693 6.77481L18.2891 5.92364L17.5088 5.21433L16.5158 4.57595L15.5228 4.07943L14.246 3.65384L13.182 3.44105L12.6146 3.37012H11.3378L9.91921 3.58291L8.85525 3.93757L7.86221 4.50502L6.86918 5.21433L6.15987 5.85271L5.80521 6.13643L5.16683 6.91667L4.52845 7.98064L3.961 9.32833L3.60635 10.5342L3.46449 11.4563V12.8039L3.67728 14.1516L4.10287 15.5703L4.81218 16.9179L5.59242 17.8401L6.2308 18.5494L7.22383 19.3296L7.93314 19.7552L8.78431 20.1808L9.84828 20.5354L10.6995 20.6773L11.4797 20.7482H12.7565L13.9623 20.6064L15.0972 20.3226L16.1611 19.8971L17.2251 19.2587L18.2181 18.4075L18.9984 17.5563L19.8496 16.2796L20.3461 15.2865L20.5589 14.79L20.8426 14.9319L21.481 15.7121L22.1903 16.4924L22.0484 16.847L21.6228 17.6273L20.8426 18.7622L19.9914 19.7552L19.0693 20.6064L17.9344 21.3866L16.4449 22.1668L15.239 22.5924L13.8204 22.8762L12.4727 23.018H11.5506L10.4157 22.8762L8.78431 22.5215L7.36569 21.9541L6.30173 21.3866L5.45056 20.8192L4.45752 20.0389L3.46449 19.1168L3.25169 19.0459V27.6995L3.10983 27.8413H1.40749L1.26562 27.5576V10.7469L1.54935 9.32833L2.18773 7.48412L2.75518 6.49109L3.60635 5.28526L4.1738 4.57595H4.31566L4.45752 4.29222L4.67031 4.22129V4.07943L5.45056 3.44105L6.51452 2.73174L7.86221 2.02243L8.99711 1.59684L10.3448 1.31312L11.0541 1.24219Z" fill="#FEFEFE"/>
<path d="M11.0541 1.24219H12.8274L14.6716 1.45498L16.0902 1.88057L17.5798 2.58988L18.36 3.08639L19.2821 3.79571L20.4879 5.00153L21.3391 6.13643L22.1903 7.48412L23.1124 9.11553L23.9636 10.5342L25.0275 12.3784L26.0206 14.0807L26.9427 15.854L27.652 16.9889L28.2903 17.8401L28.8578 18.4784L29.7799 19.1877L30.7729 19.7552L31.9078 20.2517L33.0427 20.6064L34.1776 20.8192L35.1707 20.8901L36.5893 20.6773L37.7951 20.3226L39.4265 19.5424L40.5614 18.7622L41.4126 17.9819L42.051 17.2726H44.1789L43.9661 17.911L43.4696 18.8331L42.7603 19.6843L42.1928 20.1808L41.4835 20.8192L40.2068 21.5994L39.0009 22.1668L37.5114 22.6634L36.2346 22.9471L35.5253 23.018H34.3904L32.8299 22.8052L31.3404 22.4506L29.9218 21.8831L28.7869 21.2447L27.8648 20.5354L26.9427 19.6843L26.1624 18.7622L25.3112 17.5563L24.6729 16.4924L23.6798 14.79L22.9705 13.5133L21.9775 11.8109L21.0554 10.1795L19.9205 8.1225L19.0693 6.77481L18.2891 5.92364L17.5088 5.21433L16.5158 4.57595L15.5228 4.07943L14.246 3.65384L13.182 3.44105L12.6146 3.37012H11.3378L9.91921 3.58291L8.85525 3.93757L7.86221 4.50502L6.86918 5.21433L6.15987 5.85271L5.80521 6.13643L5.16683 6.91667L4.52845 7.98064L3.961 9.32833L3.60635 10.5342L3.46449 11.4563V12.8039L3.67728 14.1516L4.10287 15.5703L4.81218 16.9179L5.59242 17.8401L6.2308 18.5494L7.22383 19.3296L7.93314 19.7552L8.78431 20.1808L9.84828 20.5354L10.6995 20.6773L11.4797 20.7482H12.7565L13.9623 20.6064L15.0972 20.3226L16.1611 19.8971L17.2251 19.2587L18.2181 18.4075L18.9984 17.5563L19.8496 16.2796L20.3461 15.2865L20.5589 14.79L20.8426 14.9319L21.481 15.7121L22.1903 16.4924L22.0484 16.847L21.6228 17.6273L20.8426 18.7622L19.9914 19.7552L19.0693 20.6064L17.9344 21.3866L16.4449 22.1668L15.239 22.5924L13.8204 22.8762L12.4727 23.018H11.5506L10.4157 22.8762L8.78431 22.5215L7.36569 21.9541L6.30173 21.3866L5.45056 20.8192L4.45752 20.0389L3.46449 19.1168L3.25169 19.0459V27.6995L3.10983 27.8413H1.40749L1.26562 27.5576V10.7469L1.54935 9.32833L2.18773 7.48412L2.75518 6.49109L3.60635 5.28526L4.1738 4.57595H4.31566L4.45752 4.29222L4.67031 4.22129V4.07943L5.45056 3.44105L6.51452 2.73174L7.86221 2.02243L8.99711 1.59684L10.3448 1.31312L11.0541 1.24219Z" stroke="#FEFEFE" stroke-width="0.91875" mask="url(#path-1-outside-1_643_63)"/>
<path d="M34.1826 0.942187H34.1738L34.165 0.942864L33.2429 1.0138L33.2311 1.0147L33.2194 1.01682L32.4392 1.15869L32.4289 1.16056L32.4188 1.16336L31.142 1.51802L31.1257 1.52255L31.1102 1.52943L29.8334 2.09688L29.8206 2.10259L29.8086 2.10982L28.3899 2.96099L28.3756 2.96959L28.3627 2.98018L27.5824 3.61856L27.5823 3.61846L27.5766 3.62347L27.0092 4.11998L26.9983 4.12947L26.9887 4.14024L26.4213 4.77862L26.4138 4.78703L26.4072 4.79612L25.8398 5.57637L25.8338 5.58458L25.8286 5.59329L25.1902 6.65725L25.1826 6.66988L25.1767 6.68336L24.6802 7.81826L24.6346 7.92245L24.6898 8.02187L25.0445 8.66025L25.0601 8.68837L25.0829 8.71112L25.934 9.56229L25.9604 9.58865L25.9937 9.60532L26.2775 9.74718L26.4976 9.85722L26.5922 9.63008L26.9419 8.79083L27.6366 7.5403L28.3264 6.64357L28.8801 6.08991L29.787 5.25277L30.6776 4.63621L31.7755 4.15587L33.3733 3.73905L34.6209 3.60043H35.3732L36.4004 3.73739L38.0666 4.29279L39.1741 4.84654L40.2123 5.53868L40.8976 6.15546L41.6581 7.05416L42.2788 8.01972L42.8323 9.2651L43.2427 10.7307H34.3245H34.0948V10.9604V12.9464V13.1347L34.2794 13.1717L34.6341 13.2426L34.6564 13.247H34.6791H45.6025H45.6976L45.7649 13.1798L45.8358 13.1088L45.8938 13.0509L45.902 12.9693L45.9729 12.26L45.974 12.2486V12.2371V11.3859V11.3764L45.9732 11.3669L45.9023 10.5157L45.9012 10.5026L45.8986 10.4897L45.6149 9.07111L45.6114 9.05355L45.6052 9.03675L45.1087 7.68906L45.1034 7.67461L45.0962 7.66099L44.4578 6.45517L44.4533 6.44659L44.448 6.43843L43.8096 5.44539L43.8015 5.43273L43.7918 5.42124L43.0115 4.49913L43.0028 4.48881L42.9929 4.47958L41.9289 3.48655L41.9199 3.47812L41.91 3.47071L40.7751 2.61954L40.7605 2.60856L40.7443 2.60003L39.3966 1.89072L39.3816 1.8828L39.3655 1.87719L37.9469 1.38067L37.9318 1.37538L37.916 1.37223L36.4974 1.08851L36.4859 1.0862L36.4742 1.08508L34.9846 0.943222L34.9737 0.942187H34.9628H34.1826Z" fill="#FEFEFE" stroke="#FEFEFE" stroke-width="0.459375"/>
</svg>
