<svg width="24" height="24" viewBox="0 0 24 24" fill="none" xmlns="http://www.w3.org/2000/svg">
<circle cx="12" cy="11.9999" r="9" stroke="white" stroke-width="2" stroke-linecap="round" stroke-linejoin="round"/>
<path d="M13.5 15.9999C13.5 16.8284 12.8284 17.4999 12 17.4999C11.1716 17.4999 10.5 16.8284 10.5 15.9999C10.5 15.1715 11.1716 14.4999 12 14.4999C12.8284 14.4999 13.5 15.1715 13.5 15.9999Z" fill="white"/>
<path d="M10.5858 7.58572C10.9754 7.1961 11.4858 7.00083 11.9965 6.99994C12.5095 6.99904 13.0228 7.1943 13.4142 7.58572C13.8047 7.97625 14 8.48809 14 8.99994C14 9.51178 13.8047 10.0236 13.4142 10.4141C13.0228 10.8056 12.5095 11.0008 11.9965 10.9999L12 11.9999" stroke="white" stroke-width="2" stroke-linecap="round" stroke-linejoin="round"/>
</svg>
