<svg width="32" height="28" viewBox="0 0 32 28" fill="none" xmlns="http://www.w3.org/2000/svg">
<path d="M0.825417 13.9912C0.827017 18.5128 4.47342 22.1896 8.99502 22.2296H10.1518V19.2072H8.99502C6.19182 19.972 3.30062 18.3193 2.53742 15.516C2.53102 15.4936 2.52622 15.4712 2.51982 15.4488C1.73422 12.6088 3.37902 9.66645 6.20942 8.84885H6.78702C7.51182 8.69045 8.26222 8.69045 8.98702 8.84885H11.7966V24.8952C11.7822 26.5928 13.147 27.9816 14.8446 27.9976V5.67125H9.01262C4.45902 5.69525 0.788617 9.40565 0.812617 13.9592V13.9608L0.825417 13.9912ZM23.0254 5.67445H21.8686V8.85685H23.0254C25.8222 8.09365 28.707 9.74165 29.4702 12.5368C29.4766 12.5576 29.4814 12.58 29.4878 12.6008C30.2686 15.4312 28.6286 18.3624 25.8094 19.1784H25.2318C24.507 19.3368 23.7566 19.3368 23.0318 19.1784H20.2222V3.13365C20.2366 1.43605 18.8718 0.04725 17.1742 0.03125V22.3896H23.0062C27.5998 22.3176 31.2654 18.5368 31.195 13.9432C31.1246 9.45045 27.5006 5.82485 23.0062 5.75445L23.0254 5.67445Z" fill="white"/>
</svg>
