<svg width="22" height="22" viewBox="0 0 22 22" fill="none" xmlns="http://www.w3.org/2000/svg">
<path d="M16.5 21V2.50003C16.5 2.10221 16.342 1.72067 16.0607 1.43937C15.7794 1.15807 15.3978 1.00003 15 1.00003H3C2.60218 1.00003 2.22064 1.15807 1.93934 1.43937C1.65804 1.72067 1.5 2.10221 1.5 2.50003V19.5C1.5 19.8979 1.65804 20.2794 1.93934 20.5607C2.22064 20.842 2.60218 21 3 21H16.5ZM16.5 21H19C19.3978 21 19.7794 20.842 20.0607 20.5607C20.342 20.2794 20.5 19.8979 20.5 19.5V11C20.5 10.7348 20.3946 10.4805 20.2071 10.2929C20.0196 10.1054 19.7652 10 19.5 10H17.5C17.2348 10 16.9804 10.1054 16.7929 10.2929C16.6054 10.4805 16.5 10.7348 16.5 11V21Z" stroke="white" stroke-width="1.2" stroke-linejoin="round"/>
<path d="M4.5 5.00003H8.5M4.5 8.50003H10.5" stroke="white" stroke-width="1.2" stroke-linecap="round" stroke-linejoin="round"/>
</svg>
