<svg width="16" height="16" viewBox="0 0 16 16" fill="none" xmlns="http://www.w3.org/2000/svg">
<path d="M9.91406 0.0807282C10.9714 0.0807282 11.9497 0.348089 12.849 0.882812C13.7361 1.39323 14.4349 2.09201 14.9453 2.97917C15.48 3.87847 15.7474 4.85677 15.7474 5.91406C15.7474 6.97135 15.48 7.94965 14.9453 8.84896C14.4349 9.73611 13.7361 10.4349 12.849 10.9453C11.9497 11.48 10.9714 11.7474 9.91406 11.7474C9.22135 11.7474 8.55903 11.6319 7.92708 11.401C7.30729 11.1701 6.74219 10.8481 6.23177 10.4349L1.58333 15.0833L0.744791 14.2448L5.39323 9.59635C4.98003 9.08594 4.65799 8.52083 4.42708 7.90104C4.19618 7.2691 4.08073 6.60677 4.08073 5.91406C4.08073 4.85677 4.34809 3.87847 4.88281 2.97917C5.39323 2.09201 6.09201 1.39323 6.97917 0.882812C7.87847 0.348089 8.85677 0.0807282 9.91406 0.0807282ZM9.91406 1.24739C9.06337 1.24739 8.27951 1.46007 7.5625 1.88542C6.85764 2.29861 6.29253 2.86371 5.86719 3.58073C5.45399 4.28559 5.2474 5.06337 5.2474 5.91406C5.2474 6.76476 5.45399 7.54861 5.86719 8.26562C6.29253 8.97049 6.85764 9.53559 7.5625 9.96094C8.27951 10.3741 9.06337 10.5807 9.91406 10.5807C10.7648 10.5807 11.5425 10.3741 12.2474 9.96094C12.9644 9.53559 13.5295 8.97049 13.9427 8.26562C14.3681 7.54861 14.5807 6.76476 14.5807 5.91406C14.5807 5.06337 14.3681 4.28559 13.9427 3.58073C13.5295 2.86371 12.9644 2.29861 12.2474 1.88542C11.5425 1.46007 10.7648 1.24739 9.91406 1.24739Z" fill="#603AE5"/>
</svg>
