<svg width="22" height="22" viewBox="0 0 22 22" fill="none" xmlns="http://www.w3.org/2000/svg">
<path d="M15.8125 6.1875C15.8125 7.46385 15.3055 8.68793 14.403 9.59045C13.5004 10.493 12.2764 11 11 11C9.72365 11 8.49957 10.493 7.59705 9.59045C6.69453 8.68793 6.1875 7.46385 6.1875 6.1875C6.1875 4.91115 6.69453 3.68707 7.59705 2.78455C8.49957 1.88203 9.72365 1.375 11 1.375C12.2764 1.375 13.5004 1.88203 14.403 2.78455C15.3055 3.68707 15.8125 4.91115 15.8125 6.1875ZM14.4375 6.1875C14.4375 5.27582 14.0753 4.40148 13.4307 3.75682C12.786 3.11216 11.9117 2.75 11 2.75C10.0883 2.75 9.21398 3.11216 8.56932 3.75682C7.92466 4.40148 7.5625 5.27582 7.5625 6.1875C7.5625 7.09918 7.92466 7.97352 8.56932 8.61818C9.21398 9.26284 10.0883 9.625 11 9.625C11.9117 9.625 12.786 9.26284 13.4307 8.61818C14.0753 7.97352 14.4375 7.09918 14.4375 6.1875ZM5.15625 12.375C4.51807 12.375 3.90603 12.6285 3.45477 13.0798C3.00352 13.531 2.75 14.1431 2.75 14.7812V15.125C2.75 16.7702 3.79706 18.1617 5.28344 19.1077C6.77806 20.0592 8.80137 20.625 11 20.625C13.1986 20.625 15.2213 20.0592 16.7166 19.1077C18.2029 18.1617 19.25 16.7702 19.25 15.125V14.7812C19.25 14.1431 18.9965 13.531 18.5452 13.0798C18.094 12.6285 17.4819 12.375 16.8438 12.375H5.15625ZM4.125 14.7812C4.125 14.5077 4.23365 14.2454 4.42705 14.052C4.62044 13.8587 4.88275 13.75 5.15625 13.75H16.8438C17.1173 13.75 17.3796 13.8587 17.573 14.052C17.7663 14.2454 17.875 14.5077 17.875 14.7812V15.125C17.875 16.1377 17.2287 17.1524 15.9782 17.9479C14.7359 18.7385 12.9779 19.25 11 19.25C9.02206 19.25 7.26412 18.7385 6.02181 17.9479C4.77056 17.1531 4.125 16.137 4.125 15.125V14.7812Z" fill="#603AE5"/>
</svg>
